<svg xmlns="http://www.w3.org/2000/svg" viewBox="0 0 722.6113 1339.2979" id="man"><title>man-0</title><g id="Layer_2" data-name="Layer 2"><rect id="hangBase" class="cls-1" y="1319.2979" width="390.3633" height="20"/><rect id="hangPole" class="cls-1" x="163.3633" y="10" width="20" height="1314.2979"/><rect id="hangTop" class="cls-1" x="158.3633" width="372" height="20"/><rect id="hangRope" class="cls-1" x="517.3633" y="0.8564" width="20" height="89.4414"/></g><g id="Layer_3" data-name="Layer 3"><rect id="Rleg" class="cls-1" x="704.4995" y="915.5348" width="20.0011" height="296.2488" transform="translate(-556.3071 444.1412) rotate(-31.0949)"/><rect id="Lleg" class="cls-1" x="416.2283" y="1055.1594" width="296.0434" height="19.9996" transform="translate(-750.0533 945.9778) rotate(-60.1163)"/><rect id="Rarm" class="cls-1" x="633.1097" y="631" width="202.7807" height="19.9999" transform="translate(-296.3448 244.3198) rotate(-22.0123)"/><rect id="Larm" class="cls-1" x="550.9999" y="536.3152" width="20.0001" height="177.3697" transform="translate(-369.6224 724.2965) rotate(-60.2552)"/><rect id="body" class="cls-1" x="518.3633" y="434.2979" width="20" height="435"/><path id="head" class="cls-1" d="M639.5811,518.6016c-95.6631,0-173.4912-77.8281-173.4912-173.4917S543.918,171.6177,639.5811,171.6177,813.0732,249.4458,813.0732,345.11,735.2451,518.6016,639.5811,518.6016Zm0-326.9839c-84.6357,0-153.4912,68.8564-153.4912,153.4922s68.8555,153.4917,153.4912,153.4917S793.0732,429.7456,793.0732,345.11,724.2168,191.6177,639.5811,191.6177Z" transform="translate(-109.6367 -77.7021)"/></g></svg>